<?xml version="1.0" encoding="utf-8"?>
<!-- Generator: Adobe Illustrator 25.3.1, SVG Export Plug-In . SVG Version: 6.00 Build 0)  -->
<svg version="1.1" id="bB" xmlns="http://www.w3.org/2000/svg" xmlns:xlink="http://www.w3.org/1999/xlink" x="0px" y="0px"
	 viewBox="0 0 150 150" style="enable-background:new 0 0 150 150;" xml:space="preserve">
<style type="text/css">
	.st0{fill:#565352;stroke:#262626;stroke-width:3;stroke-linejoin:round;stroke-miterlimit:10;}
	.st1{fill:none;stroke:#262626;stroke-width:3;stroke-linejoin:round;stroke-miterlimit:10;}
</style>
<g>
	<path class="st0" d="M97.9,110.4c0,0,12.6-10.1,12.6-32c0-18.6-12-31.8-20.9-40.6c-9.8,9.5-10.2,40.5-10.2,40.5H68.3
		c0,0-2.2-33,15.6-53.2c-0.3-4.9-4.5-9.3-8.9-9.9c-11.1-1.5-12.5,7.1-12.5,11c0,4,2.2,7.3,2.2,7.3c-8.6,8.6-25.2,22.9-25.2,44.8
		s12.5,32,12.5,32c-13.5,0-20.3,8.6-20.3,12.5s0,12,0,12H75h43.2c0,0,0-8.1,0-12C118.2,118.9,111.4,110.4,97.9,110.4z"/>
	<path class="st1" d="M97.9,110.4c0,0-11.4-0.5-22.9-0.5s-22.9,0.5-22.9,0.5"/>
</g>
</svg>
