<?xml version="1.0" encoding="utf-8"?>
<!-- Generator: Adobe Illustrator 25.3.1, SVG Export Plug-In . SVG Version: 6.00 Build 0)  -->
<svg version="1.1" id="wK" xmlns="http://www.w3.org/2000/svg" xmlns:xlink="http://www.w3.org/1999/xlink" x="0px" y="0px"
	 viewBox="0 0 150 150" style="enable-background:new 0 0 150 150;" xml:space="preserve">
<style type="text/css">
	.st0{fill:#565352;stroke:#262626;stroke-width:3;stroke-linejoin:round;stroke-miterlimit:10;}
</style>
<g>
	<path class="st0" d="M125.1,90.1c3.8-3.8,6.1-9.7,6.1-16.9c0-7.5-2.9-27.8-27.1-27.8c-10.7,0-18.9,3.5-18.9,3.5l-2.5-9.2h9.6V24.5
		h-9.9v-9.9H75h-7.4v9.9h-9.9v15.1h9.6l-2.5,9.2c0,0-8.1-3.5-18.9-3.5c-24.2,0-27.1,20.3-27.1,27.8c0,7.2,2.2,13.1,6,16.9
		c3.1,3.1,14.2,14.9,16.2,17.1s3,5.2,3,5.2c-6.7,2.2-11,7.9-11,11.4c0,3.1,0,11.5,0,11.5H75h41.9c0,0,0-8.5,0-11.5
		c0-3.5-4.3-9.3-11-11.4c0,0,1-3,3-5.2S122,93.1,125.1,90.1z M63.5,92.8h-6.2c0,0-14.4-14.2-14.4-18.5c0-5.2,4.7-7.3,9-7.3
		c3.1,0,11.5,1.3,11.5,4.8V92.8z M92.7,92.8h-6.2v-21c0-3.5,8.4-4.8,11.5-4.8c4.3,0,9.1,2.1,9.1,7.3C107.1,78.6,92.7,92.8,92.7,92.8
		z"/>
	<path class="st0" d="M105.9,112.4c0,0-15.4-2.1-30.9-2.1s-30.9,2.1-30.9,2.1"/>
</g>
</svg>
