<?xml version="1.0" encoding="utf-8"?>
<!-- Generator: Adobe Illustrator 25.3.1, SVG Export Plug-In . SVG Version: 6.00 Build 0)  -->
<svg version="1.1" id="bN" xmlns="http://www.w3.org/2000/svg" xmlns:xlink="http://www.w3.org/1999/xlink" x="0px" y="0px"
	 viewBox="0 0 150 150" style="enable-background:new 0 0 150 150;" xml:space="preserve">
<style type="text/css">
	.st0{fill:#565352;stroke:#262626;stroke-width:3;stroke-linejoin:round;stroke-miterlimit:10;}
	.st1{fill:none;stroke:#262626;stroke-width:3;stroke-linejoin:round;stroke-miterlimit:10;}
	.st2{fill:#262626;}
</style>
<g>
	<path class="st0" d="M123.6,133.4H39.1c0,0-3.3-21.1,11.5-22.8c0,0,0.5-11.9,14.7-22.7c5.8-4.4,12.2-9.2,12.2-15.6s-2-5.3-2-5.3
		S68,74.2,62.1,77.7l-8.4,0.9c-3.8,2.1-6.4,9.6-10.8,9.6c-3.8,0-17-3.6-17-11.3s6.2-9.6,11.6-18.6c4.8-8.2,6.8-16.9,8.8-20.2
		c3.2-5.3,7.9-6.5,9.4-10.2c1.3-3.1-0.4-11.2,5.7-11.2c6.2,0,11.6,10.7,11.6,10.7c6.1,1.4,45.7,4.2,45.7,52.6
		c0,14.5-6.4,30.7-6.4,30.7C127.5,113.5,123.6,133.4,123.6,133.4z"/>
	<path class="st1" d="M50.6,110.7c0,0,31.3-5.4,61.9-0.1"/>
	<path class="st2" d="M55.7,49.9c0,0,0.7-9.1,6.8-9.1c3.7,0,4.9,2.4,4.9,3.8c0,3.4-2.4,3.5-2.4,3.5c-0.7,0-3.5-0.6-5.9,0.1
		C56.6,49.1,55.7,49.9,55.7,49.9z"/>
</g>
</svg>
