<?xml version="1.0" encoding="utf-8"?>
<!-- Generator: Adobe Illustrator 25.3.1, SVG Export Plug-In . SVG Version: 6.00 Build 0)  -->
<svg version="1.1" id="bP" xmlns="http://www.w3.org/2000/svg" xmlns:xlink="http://www.w3.org/1999/xlink" x="0px" y="0px"
	 viewBox="0 0 150 150" style="enable-background:new 0 0 150 150;" xml:space="preserve">
<style type="text/css">
	.st0{fill:#565352;stroke:#262626;stroke-width:3;stroke-linejoin:round;stroke-miterlimit:10;}
</style>
<path class="st0" d="M75,25.6c13,0,19,10.2,19,19.7S87.2,60,87.2,60s10.2,5.7,10.2,8.7s-0.9,4.7-2.1,5.9H86
	c0.2,8.2,5.6,19.9,12.1,23.3c17.2,9,14.7,26.4,14.7,26.4H75H37.2c0,0-2.6-17.4,14.7-26.4c6.5-3.4,11.9-15.1,12.1-23.3h-9.3
	c-1.2-1.2-2-2.9-2-5.9S62.8,60,62.8,60S56,54.8,56,45.3S62,25.6,75,25.6z"/>
</svg>
