<?xml version="1.0" encoding="utf-8"?>
<!-- Generator: Adobe Illustrator 25.3.1, SVG Export Plug-In . SVG Version: 6.00 Build 0)  -->
<svg version="1.1" id="bQ" xmlns="http://www.w3.org/2000/svg" xmlns:xlink="http://www.w3.org/1999/xlink" x="0px" y="0px"
	 viewBox="0 0 150 150" style="enable-background:new 0 0 150 150;" xml:space="preserve">
<style type="text/css">
	.st0{fill:#565352;stroke:#262626;stroke-width:3;stroke-linejoin:round;stroke-miterlimit:10;}
</style>
<g>
	<path class="st0" d="M120.5,40.8c-6.5,0-11.4,5.5-11.4,11.2c0,3.4,1.3,6.2,1.3,6.2L97.8,71.5L96.6,40c0,0,7.5-3.7,7.5-11.2
		c0-7.5-6.3-11.9-12.6-11.9c-6.2,0-12,5.5-12,12s4.1,9,4.1,9L75,64l-8.6-26c0,0,4.1-2.5,4.1-9s-5.8-12.1-12-12.1
		c-6.3,0-12.6,4.4-12.6,11.9c0,7.6,7.5,11.2,7.5,11.2l-1.3,31.5L39.6,58.3c0,0,1.3-2.8,1.3-6.2c0-5.7-4.9-11.2-11.4-11.2
		C23,40.8,18,46.3,18,52.8c0,8.9,9.6,11.5,9.6,11.5l19.3,45.4c-8,1.3-13.8,6.8-13.8,13.2c0,2.7,0,10.3,0,10.3H75h41.9
		c0,0,0-7.6,0-10.2c0-6.4-5.8-11.9-13.8-13.2l19.3-45.4c0,0,9.6-2.6,9.6-11.5C132,46.3,127,40.8,120.5,40.8z"/>
	<path class="st0" d="M103.1,109.6c0,0-14-1.7-28.1-1.7s-28,1.7-28,1.7"/>
</g>
</svg>
