<?xml version="1.0" encoding="utf-8"?>
<!-- Generator: Adobe Illustrator 25.3.1, SVG Export Plug-In . SVG Version: 6.00 Build 0)  -->
<svg version="1.1" id="bR" xmlns="http://www.w3.org/2000/svg" xmlns:xlink="http://www.w3.org/1999/xlink" x="0px" y="0px"
	 viewBox="0 0 150 150" style="enable-background:new 0 0 150 150;" xml:space="preserve">
<style type="text/css">
	.st0{fill:#565352;stroke:#262626;stroke-width:3;stroke-linejoin:round;stroke-miterlimit:10;}
	.st1{fill:none;stroke:#262626;stroke-width:3;stroke-linejoin:round;stroke-miterlimit:10;}
	.st2{fill:none;stroke:#262626;stroke-width:3;stroke-miterlimit:10;}
</style>
<g>
	<path class="st0" d="M105,106l-5.6-48.2c0,0,9-3.8,9.5-8.8l1.6-21c0,0-2.8-3.9-14.4-3.9l-3.4,13.5h-6.7L84.2,22
		c0,0-4.2-1.1-9.2-1.1S65.8,22,65.8,22l-1.9,15.6h-6.7l-3.4-13.5c-11.6,0-14.4,3.9-14.4,3.9L41,49c0.5,5,9.5,8.8,9.5,8.8L44.9,106
		c-5.6,1.1-12.2,6.5-12.2,11c0,3.5,0,12.2,0,12.2H75h42.3c0,0,0-8.7,0-12.2C117.3,112.5,110.6,107,105,106z"/>
	<path class="st1" d="M99.5,57.7c0,0-11.6-2.3-24.5-2.3s-24.5,2.3-24.5,2.3"/>
	<path class="st2" d="M105,106c0,0-14.3-1.9-30-1.9S45,106,45,106"/>
</g>
</svg>
