<?xml version="1.0" encoding="utf-8"?>
<!-- Generator: Adobe Illustrator 25.3.1, SVG Export Plug-In . SVG Version: 6.00 Build 0)  -->
<svg version="1.1" id="wB" xmlns="http://www.w3.org/2000/svg" xmlns:xlink="http://www.w3.org/1999/xlink" x="0px" y="0px"
	 viewBox="0 0 150 150" style="enable-background:new 0 0 150 150;" xml:space="preserve">
<style type="text/css">
	.st0{fill:#F8F8F8;stroke:#464646;stroke-width:3;stroke-linejoin:round;stroke-miterlimit:10;}
	.st1{fill:none;stroke:#464646;stroke-width:3;stroke-linejoin:round;stroke-miterlimit:10;}
</style>
<g>
	<path class="st0" d="M97.91,110.4c0,0,12.55-10.05,12.55-31.99c0-18.64-11.98-31.76-20.86-40.56c-9.81,9.49-10.21,40.5-10.21,40.5
		H68.3c0,0-2.15-33.03,15.62-53.22c-0.29-4.92-4.47-9.29-8.92-9.88c-11.11-1.46-12.5,7.08-12.5,11.02c0,3.95,2.23,7.3,2.23,7.3
		c-8.6,8.6-25.19,22.89-25.19,44.83s12.55,31.99,12.55,31.99c-13.54,0-20.34,8.55-20.34,12.5c0,3.95,0,12.01,0,12.01H75h43.25
		c0,0,0-8.06,0-12.01C118.25,118.95,111.45,110.4,97.91,110.4z"/>
	<path class="st1" d="M97.91,110.4c0,0-11.41-0.48-22.91-0.48s-22.91,0.48-22.91,0.48"/>
</g>
</svg>
