<?xml version="1.0" encoding="utf-8"?>
<!-- Generator: Adobe Illustrator 25.3.1, SVG Export Plug-In . SVG Version: 6.00 Build 0)  -->
<svg version="1.1" id="wK" xmlns="http://www.w3.org/2000/svg" xmlns:xlink="http://www.w3.org/1999/xlink" x="0px" y="0px"
	 viewBox="0 0 150 150" style="enable-background:new 0 0 150 150;" xml:space="preserve">
<style type="text/css">
	.st0{fill:#F8F8F8;stroke:#464646;stroke-width:3;stroke-linejoin:round;stroke-miterlimit:10;}
</style>
<g>
	<path class="st0" d="M125.08,90.07c3.82-3.82,6.05-9.73,6.05-16.91c0-7.53-2.92-27.8-27.11-27.8c-10.74,0-18.86,3.52-18.86,3.52
		l-2.49-9.24h9.59V24.53h-9.88V14.6H75h-7.38v9.93h-9.88v15.11h9.59l-2.49,9.24c0,0-8.12-3.52-18.86-3.52
		c-24.19,0-27.11,20.27-27.11,27.8c0,7.17,2.23,13.09,6.05,16.91c3.08,3.08,14.17,14.92,16.19,17.14s2.98,5.22,2.98,5.22
		c-6.67,2.18-10.96,7.92-10.96,11.45c0,3.07,0,11.53,0,11.53H75h41.86c0,0,0-8.46,0-11.53c0-3.52-4.29-9.26-10.96-11.45
		c0,0,0.96-3,2.98-5.22S122,93.15,125.08,90.07z M63.49,92.8h-6.18c0,0-14.4-14.17-14.4-18.54c0-5.22,4.74-7.27,9.05-7.27
		c3.13,0,11.53,1.27,11.53,4.77V92.8z M92.68,92.8h-6.18V71.76c0-3.5,8.4-4.77,11.53-4.77c4.3,0,9.05,2.05,9.05,7.27
		C107.08,78.63,92.68,92.8,92.68,92.8z"/>
	<path class="st0" d="M44.09,112.43c0,0,15.45-2.07,30.91-2.07"/>
	<path class="st0" d="M105.91,112.43c0,0-15.45-2.07-30.91-2.07"/>
</g>
</svg>
