<?xml version="1.0" encoding="utf-8"?>
<!-- Generator: Adobe Illustrator 25.3.1, SVG Export Plug-In . SVG Version: 6.00 Build 0)  -->
<svg version="1.1" id="wN" xmlns="http://www.w3.org/2000/svg" xmlns:xlink="http://www.w3.org/1999/xlink" x="0px" y="0px"
	 viewBox="0 0 150 150" style="enable-background:new 0 0 150 150;" xml:space="preserve">
<style type="text/css">
	.st0{fill:#F8F8F8;stroke:#464646;stroke-width:3;stroke-linejoin:round;stroke-miterlimit:10;}
	.st1{fill:none;stroke:#464646;stroke-width:3;stroke-linejoin:round;stroke-miterlimit:10;}
	.st2{fill:#464646;}
</style>
<g>
	<path class="st0" d="M123.56,133.45H39.14c0,0-3.31-21.13,11.46-22.79c0,0,0.47-11.93,14.72-22.74
		c5.82-4.42,12.18-9.15,12.18-15.64c0-6.49-1.97-5.31-1.97-5.31s-7.49,7.28-13.4,10.73l-8.38,0.88c-3.78,2.05-6.42,9.56-10.75,9.56
		c-3.79,0-17.01-3.57-17.01-11.34s6.18-9.57,11.56-18.64c4.84-8.15,6.8-16.86,8.85-20.23c3.24-5.32,7.92-6.55,9.44-10.16
		c1.32-3.14-0.39-11.22,5.74-11.22c6.2,0,11.64,10.7,11.64,10.7c6.07,1.43,45.67,4.17,45.67,52.6c0,14.53-6.41,30.72-6.41,30.72
		C127.49,113.49,123.56,133.45,123.56,133.45z"/>
	<path class="st1" d="M50.59,110.66c0,0,31.26-5.38,61.88-0.1"/>
	<path class="st2" d="M55.67,49.91c0,0,0.72-9.07,6.78-9.07c3.72,0,4.92,2.41,4.92,3.82c0,3.42-2.36,3.55-2.36,3.55
		c-0.72,0-3.49-0.64-5.86,0.11C56.6,49.12,55.67,49.91,55.67,49.91z"/>
</g>
</svg>
