<?xml version="1.0" encoding="utf-8"?>
<!-- Generator: Adobe Illustrator 25.3.1, SVG Export Plug-In . SVG Version: 6.00 Build 0)  -->
<svg version="1.1" id="wQ" xmlns="http://www.w3.org/2000/svg" xmlns:xlink="http://www.w3.org/1999/xlink" x="0px" y="0px"
	 viewBox="0 0 150 150" style="enable-background:new 0 0 150 150;" xml:space="preserve">
<style type="text/css">
	.st0{fill:#F8F8F8;stroke:#464646;stroke-width:3;stroke-linejoin:round;stroke-miterlimit:10;}
</style>
<g>
	<path class="st0" d="M120.51,40.83c-6.53,0-11.42,5.54-11.42,11.23c0,3.42,1.28,6.25,1.28,6.25L97.84,71.55l-1.27-31.5
		c0,0,7.52-3.65,7.52-11.23c0-7.48-6.28-11.93-12.58-11.93c-6.21,0-12.04,5.5-12.04,12.04s4.1,9.03,4.1,9.03L75,63.99l-8.55-26.02
		c0,0,4.1-2.49,4.1-9.03S64.71,16.89,58.5,16.89c-6.3,0-12.58,4.44-12.58,11.93c0,7.58,7.52,11.23,7.52,11.23l-1.27,31.5
		L39.63,58.31c0,0,1.28-2.82,1.28-6.25c0-5.68-4.89-11.23-11.42-11.23c-6.51,0-11.54,5.45-11.54,11.93c0,8.87,9.65,11.48,9.65,11.48
		l19.34,45.41c-7.99,1.29-13.81,6.83-13.81,13.21c0,2.69,0,10.25,0,10.25H75h41.86c0,0,0-7.56,0-10.25
		c0-6.38-5.82-11.92-13.81-13.21l19.34-45.41c0,0,9.65-2.6,9.65-11.48C132.04,46.29,127.01,40.83,120.51,40.83z"/>
	<path class="st0" d="M103.05,109.65c0,0-14.03-1.65-28.05-1.65s-28.05,1.65-28.05,1.65"/>
</g>
</svg>
