<?xml version="1.0" encoding="utf-8"?>
<!-- Generator: Adobe Illustrator 25.3.1, SVG Export Plug-In . SVG Version: 6.00 Build 0)  -->
<svg version="1.1" id="wR" xmlns="http://www.w3.org/2000/svg" xmlns:xlink="http://www.w3.org/1999/xlink" x="0px" y="0px"
	 viewBox="0 0 150 150" style="enable-background:new 0 0 150 150;" xml:space="preserve">
<style type="text/css">
	.st0{fill:#F8F8F8;stroke:#464646;stroke-width:3;stroke-linejoin:round;stroke-miterlimit:10;}
	.st1{fill:none;stroke:#464646;stroke-width:3;stroke-linejoin:round;stroke-miterlimit:10;}
	.st2{fill:none;stroke:#464646;stroke-width:3;stroke-miterlimit:10;}
</style>
<g>
	<path class="st0" d="M105.04,105.97l-5.58-48.23c0,0,8.97-3.77,9.52-8.76l1.61-21.03c0,0-2.76-3.86-14.36-3.86l-3.42,13.52h-6.7
		l-1.93-15.63c0,0-4.16-1.08-9.19-1.08s-9.19,1.08-9.19,1.08l-1.93,15.63h-6.7l-3.42-13.52c-11.59,0-14.36,3.86-14.36,3.86
		l1.61,21.03c0.55,4.99,9.52,8.76,9.52,8.76l-5.58,48.23c-5.58,1.08-12.21,6.52-12.21,10.96c0,3.49,0,12.16,0,12.16H75h42.26
		c0,0,0-8.67,0-12.16C117.26,112.49,110.62,107.05,105.04,105.97z"/>
	<path class="st1" d="M99.47,57.74c0,0-11.6-2.28-24.47-2.28s-24.47,2.28-24.47,2.28"/>
	<path class="st2" d="M105.04,105.97c0,0-14.3-1.94-30.04-1.94s-30.04,1.94-30.04,1.94"/>
</g>
</svg>
